<svg xmlns="http://www.w3.org/2000/svg" x="0px" y="0px" viewBox="0 0 192 192"><g class="main"><g id="surface1">

<path d="M15.36,11.52v3.84v23.04h7.68v119.04v3.84v23.04h26.88v-15.36c0,-3.2 0.7401,-4.9101 1.755,-5.925c1.0149,-1.0149 2.725,-1.755 5.925,-1.755h37.755c0.41469,0.06854 0.83781,0.06854 1.2525,0h37.7925c3.2,0 4.9101,0.7401 5.925,1.755c1.0149,1.0149 1.755,2.725 1.755,5.925v15.36h26.88v-23.04v-3.84v-119.04h7.68v-26.88zM23.04,19.2h145.92v11.52h-145.92zM30.72,38.4h61.44v115.2h-34.56h-26.88zM99.84,38.4h61.44v115.2h-26.88h-34.56zM76.74,80.5875c-2.11782,0.0331 -3.809,1.77462 -3.78,3.8925v23.04c-0.01959,1.38484 0.708,2.67295 1.90415,3.37109c1.19615,0.69814 2.67555,0.69814 3.8717,0c1.19615,-0.69814 1.92374,-1.98625 1.90415,-3.37109v-23.04c0.01421,-1.03795 -0.39236,-2.03745 -1.12708,-2.77076c-0.73472,-0.73331 -1.735,-1.13795 -2.77292,-1.12174zM115.14,80.5875c-2.11782,0.0331 -3.809,1.77462 -3.78,3.8925v23.04c-0.01959,1.38484 0.708,2.67295 1.90415,3.37109c1.19615,0.69814 2.67555,0.69814 3.8717,0c1.19615,-0.69814 1.92374,-1.98625 1.90415,-3.37109v-23.04c0.01421,-1.03795 -0.39236,-2.03745 -1.12708,-2.77076c-0.73472,-0.73331 -1.735,-1.13795 -2.77292,-1.12174zM30.72,161.28h13.095c-1.04129,2.27412 -1.575,4.87245 -1.575,7.68v7.68h-11.52zM148.185,161.28h13.095v15.36h-11.52v-7.68c0,-2.80755 -0.53371,-5.40588 -1.575,-7.68z"></path>
</g></g></svg>