<svg xmlns="http://www.w3.org/2000/svg" x="0px" y="0px" viewBox="0 0 192 192"><g class="main"><g id="surface1"><path d="M38.4,0c-6.315,0 -11.52,5.205 -11.52,11.52v60.24c-0.225,0.75 -0.225,1.53 0,2.28v94.92c0,6.315 5.205,11.52 11.52,11.52v3.84c0,4.2 3.48,7.68 7.68,7.68h11.52c4.2,0 7.68,-3.48 7.68,-7.68v-3.84h61.44v3.84c0,4.2 3.48,7.68 7.68,7.68h11.52c4.2,0 7.68,-3.48 7.68,-7.68v-3.84c6.315,0 11.52,-5.205 11.52,-11.52v-95.28c0.105,-0.51 0.105,-1.05 0,-1.56v-60.6c0,-6.315 -5.205,-11.52 -11.52,-11.52zM38.4,7.68h115.2c2.16,0 3.84,1.68 3.84,3.84v57.6h-122.88v-57.6c0,-2.16 1.68,-3.84 3.84,-3.84zM53.4,22.92c-0.165,0.03 -0.33,0.075 -0.48,0.12c-1.785,0.405 -3.045,2.01 -3,3.84v26.88c-0.015,1.38 0.705,2.67 1.905,3.375c1.2,0.69 2.67,0.69 3.87,0c1.2,-0.705 1.92,-1.995 1.905,-3.375v-26.88c0.045,-1.11 -0.405,-2.175 -1.2,-2.925c-0.81,-0.765 -1.905,-1.14 -3,-1.035zM34.56,76.8h122.88v92.16c0,2.16 -1.68,3.84 -3.84,3.84h-115.2c-2.16,0 -3.84,-1.68 -3.84,-3.84zM53.4,88.2c-0.165,0.03 -0.33,0.075 -0.48,0.12c-1.785,0.405 -3.045,2.01 -3,3.84v26.88c-0.015,1.38 0.705,2.67 1.905,3.375c1.2,0.69 2.67,0.69 3.87,0c1.2,-0.705 1.92,-1.995 1.905,-3.375v-26.88c0.045,-1.11 -0.405,-2.175 -1.2,-2.925c-0.81,-0.765 -1.905,-1.14 -3,-1.035zM46.08,180.48h11.52v3.84h-11.52zM134.4,180.48h11.52v3.84h-11.52z"></path></g></g></svg>