<svg xmlns="http://www.w3.org/2000/svg" x="0px" y="0px" viewBox="0 0 192 192"><g class="main"><g id="surface1">

<path d="M63.36,0c-8.19,0 -16.545,4.17 -23.28,8.16c-6.735,3.99 -11.76,8.04 -11.76,8.04c-0.87,0.675 -1.41,1.695 -1.485,2.805c-0.075,1.095 0.345,2.175 1.125,2.955c0,0 5.025,4.965 11.76,9.96c6.735,4.995 15.09,10.32 23.64,10.32c11.655,0 21.12,-9.465 21.12,-21.12c0,-11.655 -9.465,-21.12 -21.12,-21.12zM63.36,7.68c7.545,0 13.44,5.895 13.44,13.44c0,7.545 -5.895,13.44 -13.44,13.44c-4.89,0 -12.855,-4.275 -19.08,-8.88c-4.14,-3.06 -5.37,-4.41 -7.2,-6.12c1.89,-1.395 2.88,-2.34 6.84,-4.68c6.225,-3.69 14.19,-7.2 19.44,-7.2zM10.92,38.4c-1.35,0.105 -2.76,0.51 -4.08,1.2c-0.075,0.045 -0.165,-0.045 -0.24,0c-6.24,3.015 -7.92,10.95 -4.56,16.56l18.48,30.36l0.12,-0.12c1.11,2.025 2.73,3.435 4.44,4.32c1.8,0.93 3.63,1.44 5.64,1.44c1.23,0 2.355,-0.315 3.48,-0.72l-14.76,45.6c-0.375,1.155 -0.195,2.43 0.525,3.435c0.705,0.99 1.845,1.59 3.075,1.605h19.2v38.4c0,6.315 5.205,11.52 11.52,11.52c2.94,0 5.64,-1.155 7.68,-3c2.04,1.845 4.74,3 7.68,3c6.315,0 11.52,-5.205 11.52,-11.52v-38.4h11.52c1.215,0.015 2.37,-0.555 3.105,-1.53c0.72,-0.96 0.96,-2.22 0.615,-3.39l-0.84,-2.76c0.195,0.015 0.405,0 0.6,0h1.08c0.24,0.03 0.48,0.03 0.72,0c0.69,-0.12 1.29,-0.36 1.92,-0.6l3.72,3.36l-1.08,1.2c-1.23,1.395 -1.275,3.465 -0.12,4.92l9.6,12c0.24,0.285 0.525,0.525 0.84,0.72c0.93,6.405 4.215,13.86 8.88,20.64c5.565,8.085 13.425,15.36 23.16,15.36c1.02,0.03 2.025,-0.36 2.76,-1.08l38.04,-38.04c1.275,-1.26 1.515,-3.24 0.555,-4.77c-0.945,-1.515 -2.82,-2.175 -4.515,-1.59c0,0 -5.115,1.68 -14.76,1.68c-9.315,0 -22.59,-1.695 -38.4,-8.52c-0.285,-0.435 -0.645,-0.795 -1.08,-1.08l-12.6,-8.88c-0.765,-0.555 -1.695,-0.81 -2.64,-0.72c-0.93,0.135 -1.785,0.6 -2.4,1.32l-1.08,1.2l-3,-2.76c1.5,-2.655 1.95,-5.685 1.44,-8.76c0,-0.075 0,-0.165 0,-0.24l-13.08,-55.92v-0.24h-0.12c-1.995,-10.2 -11.25,-17.52 -22.08,-17.52h-19.2c-7.74,0 -14.7,3.795 -19.2,10.08c-0.045,0.045 -0.075,0.075 -0.12,0.12l-2.04,3l-9.12,-15.24c-0.045,-0.045 -0.075,-0.075 -0.12,-0.12c-1.605,-2.415 -4.035,-4.2 -6.72,-5.04c-1.305,-0.405 -2.61,-0.585 -3.96,-0.48zM11.52,45.96c1.23,-0.075 2.565,0.69 3.6,2.16c0.045,0.06 0.09,0.06 0.12,0.12l1.08,1.8c-0.51,-0.15 -1.035,-0.18 -1.56,-0.12c-1.485,0.225 -2.715,1.29 -3.12,2.745c-0.42,1.44 0.06,3 1.2,3.975l24,21.36l-3.12,4.68c-1.05,1.56 -1.41,1.8 -3,1.8c-0.3,0 -1.365,-0.195 -2.16,-0.6c-0.795,-0.405 -1.275,-0.99 -1.32,-1.08c-0.03,-0.12 -0.075,-0.24 -0.12,-0.36l-18.48,-30.24c-1.2,-1.995 -0.57,-4.725 1.44,-5.64c0.09,-0.075 0.165,-0.15 0.24,-0.24c0.375,-0.21 0.795,-0.33 1.2,-0.36zM52.2,53.76h19.2c7.515,0 13.455,4.845 14.64,11.4c0.03,0.075 0.075,0.165 0.12,0.24l12.96,55.8v0.24c0.165,1.38 -0.075,2.7 -0.6,3.6c-0.555,0.96 -1.215,1.485 -2.4,1.68h-0.48c-1.755,0 -3.225,-1.065 -3.6,-2.76c0,-0.045 0,-0.075 0,-0.12l-9.96,-40.32c-0.525,-2.055 -2.625,-3.285 -4.68,-2.76c-2.055,0.525 -3.285,2.625 -2.76,4.68l5.16,20.64l-44.4,-39.6l3.84,-5.88c3.18,-4.455 7.635,-6.84 12.96,-6.84zM44.4,84.72l35.64,31.8c0.465,0.465 1.05,0.795 1.68,0.96l5.16,16.92h-24.72c-0.51,-0.105 -1.05,-0.105 -1.56,0h-13.68c-0.39,-0.105 -0.795,-0.15 -1.2,-0.12c-0.12,0.03 -0.24,0.075 -0.36,0.12h-17.04zM180.48,111.36c-6.315,0 -11.52,5.205 -11.52,11.52c0,6.315 5.205,11.52 11.52,11.52c6.315,0 11.52,-5.205 11.52,-11.52c0,-6.315 -5.205,-11.52 -11.52,-11.52zM180.48,119.04c2.16,0 3.84,1.68 3.84,3.84c0,2.16 -1.68,3.84 -3.84,3.84c-2.16,0 -3.84,-1.68 -3.84,-3.84c0,-2.16 1.68,-3.84 3.84,-3.84zM155.52,126.72c-3.18,0 -5.76,2.58 -5.76,5.76c0,3.18 2.58,5.76 5.76,5.76c3.18,0 5.76,-2.58 5.76,-5.76c0,-3.18 -2.58,-5.76 -5.76,-5.76zM112.68,137.88l6.36,4.44l-4.32,4.68l-4.8,-6zM49.92,142.08h7.68v37.8c0,0.12 0,0.24 0,0.36v0.24c0,2.13 -1.71,3.84 -3.84,3.84c-2.13,0 -3.84,-1.71 -3.84,-3.84zM65.28,142.08h7.68v38.4c0,2.13 -1.71,3.84 -3.84,3.84c-2.13,0 -3.84,-1.71 -3.84,-3.84c0,-0.12 0,-0.24 0,-0.36zM126,146.88c16.305,6.84 30.435,9 40.44,9c2.22,0 3.435,-0.33 5.28,-0.48l-15.84,15.84c-12.195,-0.54 -18.48,-8.52 -18.48,-8.52c-0.87,-1.14 -2.31,-1.695 -3.72,-1.44c-1.35,0.24 -2.46,1.185 -2.94,2.46c-0.465,1.29 -0.21,2.73 0.66,3.78c0,0 6.345,7.695 17.76,10.44l-5.88,5.88c-5.355,-0.585 -11.22,-4.98 -15.72,-11.52c-4.485,-6.525 -7.2,-14.355 -7.56,-18.72z"></path>
</g></g></svg>