<svg xmlns="http://www.w3.org/2000/svg" x="0px" y="0px" viewBox="0 0 192 192"><g class="main"><g id="surface1">

<path d="M46.08,7.68c-4.19736,0 -7.68,3.48264 -7.68,7.68h-11.52c-6.31668,0 -11.52,5.20332 -11.52,11.52v134.4c0,6.31472 5.201,11.52 11.52,11.52h7.68v3.84c0,4.19736 3.48264,7.68 7.68,7.68h11.52c4.19736,0 7.68,-3.48264 7.68,-7.68v-3.84h69.12v3.84c0,4.19736 3.48264,7.68 7.68,7.68h11.52c4.19736,0 7.68,-3.48264 7.68,-7.68v-3.84h7.68c6.31704,0 11.52,-5.20296 11.52,-11.52v-103.035c0.06854,-0.41469 0.06854,-0.83781 0,-1.2525v-30.1125c0,-6.319 -5.20528,-11.52 -11.52,-11.52h-11.52c0,-4.19736 -3.48264,-7.68 -7.68,-7.68h-23.04c-4.19736,0 -7.68,3.48264 -7.68,7.68h-34.56c0,-4.19736 -3.48264,-7.68 -7.68,-7.68zM26.88,23.04h14.715c0.41469,0.06854 0.83781,0.06854 1.2525,0h33.3075c0.41469,0.06854 0.83781,0.06854 1.2525,0h40.9875c0.41469,0.06854 0.83781,0.06854 1.2525,0h29.4675c0.41469,0.06854 0.83781,0.06854 1.2525,0h14.7525c2.164,0 3.84,1.6726 3.84,3.84v26.88h-145.92v-26.88c0,-2.16972 1.67028,-3.84 3.84,-3.84zM38.4,30.72c-4.24155,0 -7.68,3.43845 -7.68,7.68c0,4.24155 3.43845,7.68 7.68,7.68c4.24155,0 7.68,-3.43845 7.68,-7.68c0,-4.24155 -3.43845,-7.68 -7.68,-7.68zM61.44,30.72c-4.24155,0 -7.68,3.43845 -7.68,7.68c0,4.24155 3.43845,7.68 7.68,7.68c4.24155,0 7.68,-3.43845 7.68,-7.68c0,-4.24155 -3.43845,-7.68 -7.68,-7.68zM84.48,30.72c-4.24155,0 -7.68,3.43845 -7.68,7.68c0,4.24155 3.43845,7.68 7.68,7.68c4.24155,0 7.68,-3.43845 7.68,-7.68c0,-4.24155 -3.43845,-7.68 -7.68,-7.68zM107.52,30.72c-4.24155,0 -7.68,3.43845 -7.68,7.68c0,4.24155 3.43845,7.68 7.68,7.68c4.24155,0 7.68,-3.43845 7.68,-7.68c0,-4.24155 -3.43845,-7.68 -7.68,-7.68zM153.6,30.72c-4.24155,0 -7.68,3.43845 -7.68,7.68c0,4.24155 3.43845,7.68 7.68,7.68c4.24155,0 7.68,-3.43845 7.68,-7.68c0,-4.24155 -3.43845,-7.68 -7.68,-7.68zM23.04,61.44h145.92v99.84c0,2.16168 -1.67832,3.84 -3.84,3.84h-10.875c-0.41469,-0.06854 -0.83781,-0.06854 -1.2525,0h-18c-0.21561,-0.03604 -0.4339,-0.0536 -0.6525,-0.0525c-0.18603,0.00403 -0.37152,0.02158 -0.555,0.0525h-75.54c-0.41469,-0.06854 -0.83781,-0.06854 -1.2525,0h-18c-0.21561,-0.03604 -0.4339,-0.0536 -0.6525,-0.0525c-0.18603,0.00403 -0.37152,0.02158 -0.555,0.0525h-10.905c-2.1674,0 -3.84,-1.676 -3.84,-3.84zM34.56,72.96v3.84v76.8h122.88v-80.64zM42.24,80.64h107.52v65.28h-107.52zM42.24,172.8h11.52v3.84h-11.52zM138.24,172.8h11.52v3.84h-11.52z"></path>
</g></g></svg>