<svg xmlns="http://www.w3.org/2000/svg" x="0px" y="0px" viewBox="0 0 192 192"><g class="main"><g id="surface1">

<path d="M119.7675,7.68c-9.98691,-0.02354 -20.38366,6.66664 -27.6375,17.385c-5.0724,7.49615 -7.6794,15.70717 -7.6575,23.1825c0.02189,7.12837 2.58512,13.85093 8.16,17.7375c3.15979,2.20183 6.90703,3.18851 10.68,3.1275c9.87585,-0.15014 20.10737,-6.7918 27.27,-17.3775c5.05402,-7.46863 7.65711,-15.65095 7.65,-23.1075c-0.00438,-7.15197 -2.54659,-13.91343 -8.145,-17.8125c-3.06065,-2.13799 -6.66883,-3.1256 -10.3125,-3.135zM119.7525,15.36c2.30833,0.00595 4.26209,0.58291 5.94,1.755h0.0075c3.07999,2.14509 4.8492,6.12303 4.8525,11.5125v0.0075c0.00653,5.62059 -2.0621,12.49557 -6.33,18.8025c-6.04717,8.93687 -14.73944,13.90687 -21.03,14.0025c-2.39931,0.0388 -4.43374,-0.54223 -6.1725,-1.755c-3.0728,-2.14223 -4.85101,-6.09301 -4.8675,-11.46c-0.0165,-5.63268 2.05837,-12.52877 6.3375,-18.855c6.12472,-9.04996 14.95245,-14.02487 21.2625,-14.01zM58.905,19.2c-10.76174,0.02049 -19.75049,10.24517 -23.085,23.52c-0.86901,3.45496 -1.27279,6.87527 -1.26,10.155c0.02135,5.44521 1.18248,10.51134 3.48,14.6775c2.29642,4.16417 5.87423,7.49254 10.4625,8.73c1.31437,0.35428 2.66209,0.52783 4.005,0.5175c10.74324,-0.0508 19.70292,-10.26488 23.0325,-23.52c0.8563,-3.40835 1.26,-6.78502 1.26,-10.02c-0.00214,-5.47552 -1.15253,-10.56955 -3.45,-14.76c-2.29746,-4.19045 -5.88452,-7.53912 -10.4925,-8.7825h-0.0075c-1.30922,-0.35193 -2.63187,-0.5175 -3.9375,-0.5175zM58.9125,26.88c0.66813,0 1.30886,0.0847 1.9425,0.255c2.26562,0.61134 4.22419,2.25377 5.76,5.055c1.53582,2.80123 2.5033,6.69208 2.505,11.07c0,2.59414 -0.32475,5.35541 -1.0275,8.1525c-2.73703,10.89541 -10.26391,17.68448 -15.63,17.7075h-0.0075c-0.65389,0.00499 -1.29829,-0.07932 -1.95,-0.255c-2.25511,-0.60713 -4.21116,-2.23614 -5.745,-5.0175c-1.53384,-2.78136 -2.50295,-6.65187 -2.52,-11.0025c-0.01037,-2.6262 0.31442,-5.42254 1.0275,-8.2575c2.73927,-10.90512 10.27149,-17.69184 15.645,-17.7075zM163.3725,53.7675c-7.45655,-0.0073 -15.63887,2.59598 -23.1075,7.65c-10.5857,7.16263 -17.22737,17.39415 -17.3775,27.27c-0.06102,3.77297 0.92567,7.52021 3.1275,10.68c3.88657,5.57488 10.60913,8.13809 17.7375,8.16c7.47533,0.02189 15.68635,-2.5851 23.1825,-7.6575c10.71836,-7.25384 17.40853,-17.65059 17.385,-27.6375v-0.0075c-0.0096,-3.64698 -1.00755,-7.2549 -3.135,-10.3125c-3.89768,-5.59642 -10.65586,-8.13881 -17.805,-8.145zM163.365,61.4475h0.0075c5.38947,0.0033 9.36741,1.77251 11.5125,4.8525c1.17494,1.68864 1.74905,3.64248 1.755,5.9475c0.01498,6.31005 -4.96004,15.13778 -14.01,21.2625c-6.32623,4.27913 -13.22232,6.354 -18.855,6.3375c-5.36699,-0.01651 -9.31777,-1.7947 -11.46,-4.8675c-1.21277,-1.73876 -1.79379,-3.77319 -1.755,-6.1725c0.09562,-6.29055 5.06564,-14.98303 14.0025,-21.03c6.30693,-4.2679 13.18191,-6.3366 18.8025,-6.33zM71.04,84.48c-18.72384,0 -31.76215,3.55462 -40.7175,7.8375c-8.95535,4.28288 -13.87792,9.40701 -16.035,11.7225c-4.44186,4.77307 -6.62108,10.87942 -6.6075,16.9275c0.01359,6.38574 2.46268,12.80221 7.32,17.655c5.2994,5.29516 10.43721,7.23739 14.4975,8.5725c4.06029,1.33511 6.81787,2.07037 10.0275,5.28c3.20963,3.20963 3.94489,5.96721 5.28,10.0275c1.33511,4.06029 3.27734,9.1981 8.5725,14.4975c4.85657,4.8611 11.26294,7.31095 17.655,7.32c6.01957,0.00922 12.11437,-2.14404 16.8825,-6.5625c5.51433,-5.11548 19.605,-23.07447 19.605,-56.7975c0,-1.63782 -0.11075,-3.30169 -0.3375,-4.9875h0.0075c-2.14212,-16.08103 -15.08147,-29.02037 -31.1625,-31.1625v0.0075c-1.68427,-0.2273 -3.34968,-0.3375 -4.9875,-0.3375zM71.04,92.16c1.30362,0 2.63334,0.08256 3.9675,0.2625c12.57305,1.67484 22.89517,11.99695 24.57,24.57c0.18027,1.34011 0.2625,2.66388 0.2625,3.9675c0,31.55697 -13.52781,47.80944 -17.145,51.165c-3.29588,3.05418 -7.45267,4.52131 -11.6475,4.515c-4.4521,-0.00614 -8.84076,-1.6751 -12.2325,-5.07h-0.0075c-4.2893,-4.29292 -5.42795,-7.5838 -6.705,-11.4675c-1.27705,-3.88371 -2.68097,-8.59097 -7.1475,-13.0575c-4.46653,-4.46653 -9.17379,-5.87045 -13.0575,-7.1475c-3.88371,-1.27705 -7.17458,-2.41552 -11.4675,-6.705v-0.0075c-3.38332,-3.37999 -5.06055,-7.78944 -5.07,-12.2325c-0.00946,-4.2124 1.46814,-8.37121 4.545,-11.6775c2.07844,-2.23107 5.88707,-6.27902 13.725,-10.0275c7.83793,-3.74848 19.65384,-7.0875 37.41,-7.0875zM148.74,115.2c-3.23498,0 -6.61165,0.4037 -10.02,1.26c-13.25512,3.32958 -23.4692,12.28926 -23.52,23.0325c-0.01037,1.34291 0.16324,2.69063 0.5175,4.005c1.23746,4.58827 4.56583,8.16608 8.73,10.4625c4.16616,2.29752 9.23229,3.45865 14.6775,3.48c3.27972,0.01267 6.70004,-0.39098 10.155,-1.26c13.27176,-3.33375 23.4948,-12.31907 23.52,-23.0775v-0.0075c0.00461,-1.3231 -0.16865,-2.64713 -0.5175,-3.945v-0.0075c-1.24338,-4.60762 -4.59205,-8.19504 -8.7825,-10.4925c-4.19045,-2.29747 -9.28448,-3.44787 -14.76,-3.45zM148.74,122.88c4.37792,0.0017 8.26876,0.96919 11.07,2.505c2.80123,1.53581 4.44366,3.49438 5.055,5.76c0.17276,0.64275 0.2575,1.27929 0.255,1.9275v0.0075c-0.01037,5.37394 -6.79801,12.91213 -17.7075,15.6525c-2.83497,0.71288 -5.63131,1.03774 -8.2575,1.0275c-4.35063,-0.01705 -8.22114,-0.98616 -11.0025,-2.52c-2.78136,-1.53384 -4.41036,-3.48972 -5.0175,-5.745c-0.17565,-0.65171 -0.26003,-1.29611 -0.255,-1.95v-0.0075c0.02304,-5.36609 6.81209,-12.89316 17.7075,-15.63c2.79709,-0.70255 5.55836,-1.0275 8.1525,-1.0275z"></path>
</g></g></svg>