<svg xmlns="http://www.w3.org/2000/svg" x="0px" y="0px" viewBox="0 0 192 192"><g class="main"><g id="surface1">

<path d="M26.16,11.52c-1.83,0.345 -3.15,1.965 -3.12,3.84v161.28c0,2.115 1.725,3.84 3.84,3.84h138.24c2.115,0 3.84,-1.725 3.84,-3.84v-161.28c0,-2.115 -1.725,-3.84 -3.84,-3.84h-138.24c-0.12,0 -0.24,0 -0.36,0c-0.12,0 -0.24,0 -0.36,0zM30.72,19.2h130.56v153.6h-130.56zM38.4,26.88v138.24h115.2v-138.24zM46.08,34.56h46.08v42.24h-46.08zM99.84,34.56h46.08v42.24h-46.08zM46.08,84.48h46.08v72.96h-46.08zM99.84,84.48h46.08v72.96h-46.08z"></path>
</g></g></svg>