<svg xmlns="http://www.w3.org/2000/svg" x="0px" y="0px" viewBox="0 0 192 192"><g class="main"><g id="surface1">

<path d="M62.52,23.04c-0.615,0.135 -1.2,0.42 -1.68,0.84l-39.24,30.12c-1.47,0.585 -2.415,2.025 -2.4,3.6v107.52c0,2.115 1.725,3.84 3.84,3.84h115.2c0.045,0 0.075,0 0.12,0c0.24,-0.015 0.48,-0.06 0.72,-0.12c0.12,-0.03 0.24,-0.075 0.36,-0.12c0.96,-0.285 1.785,-0.93 2.28,-1.8l30.24,-37.8c0.54,-0.675 0.84,-1.53 0.84,-2.4v-99.12c0.225,-1.29 -0.24,-2.595 -1.2,-3.48c-0.03,-0.075 -0.075,-0.165 -0.12,-0.24c-0.045,0 -0.075,0 -0.12,0c-0.075,-0.09 -0.15,-0.165 -0.24,-0.24c-0.045,0 -0.075,0 -0.12,0c-0.195,-0.135 -0.39,-0.255 -0.6,-0.36c-0.345,-0.135 -0.705,-0.21 -1.08,-0.24c-0.12,0 -0.24,0 -0.36,0h-105.72c-0.12,0 -0.24,0 -0.36,0c-0.12,0 -0.24,0 -0.36,0zM64.44,30.72h40.68l-25.92,23.04h-44.88zM116.64,30.72h42.96l-23.04,23.04h-45.84zM165.12,36.24v89.16l-23.04,28.8v-94.92zM26.88,61.44h52.32c0.735,0.225 1.545,0.225 2.28,0h52.92v99.84h-107.52zM60.72,76.8c-2.115,0.195 -3.675,2.085 -3.48,4.2c0.195,2.115 2.085,3.675 4.2,3.48h38.4c1.38,0.015 2.67,-0.705 3.375,-1.905c0.69,-1.2 0.69,-2.67 0,-3.87c-0.705,-1.2 -1.995,-1.92 -3.375,-1.905h-38.4c-0.12,0 -0.24,0 -0.36,0c-0.12,0 -0.24,0 -0.36,0z"></path>
</g></g></svg>