<svg xmlns="http://www.w3.org/2000/svg" x="0px" y="0px" viewBox="0 0 192 192"><g class="main"><g id="surface1">

<path d="M11.52,15.36v84.48h11.52v76.8h53.76h38.4h53.76v-76.8h11.52v-3.84v-80.64zM19.2,23.04h153.6v69.12h-7.035c-0.41469,-0.06854 -0.83781,-0.06854 -1.2525,0h-39.525l-28.9875,-45.555l-28.9875,45.555h-39.54c-0.21561,-0.03604 -0.4339,-0.0536 -0.6525,-0.0525c-0.18603,0.00403 -0.37152,0.02158 -0.555,0.0525h-7.065zM96,60.915l24.7725,38.925h40.5075v69.12h-46.08v-34.56c0,-10.55814 -8.64186,-19.2 -19.2,-19.2c-10.55814,0 -19.2,8.64186 -19.2,19.2v34.56h-46.08v-69.12h40.5075zM38.4,115.2v3.84v30.72h30.72v-34.56zM122.88,115.2v3.84v30.72h30.72v-34.56zM46.08,122.88h15.36v19.2h-15.36zM96,122.88c6.40698,0 11.52,5.11302 11.52,11.52v34.56h-23.04v-34.56c0,-6.40698 5.11302,-11.52 11.52,-11.52zM130.56,122.88h15.36v19.2h-15.36z"></path>
</g></g></svg>