<svg xmlns="http://www.w3.org/2000/svg" x="0px" y="0px" viewBox="0 0 192 192"><g class="main"><g id="surface1">

<path d="M181.68,0.24c-3.48,0.24 -6.69,2.475 -7.8,6.12v0.12c-0.03,0.09 -0.06,0.18 -0.12,0.24l-42.72,111c-7.74,3.315 -18.555,8.91 -27.96,16.8c-10.02,8.4 -18.6,19.515 -18.6,33.24c0,5.88 2.175,12.18 7.2,16.8c5.025,4.62 12.69,7.44 23.16,7.44h73.32c1.92,-0.06 3.495,-1.515 3.705,-3.42c0.21,-1.905 -1.005,-3.66 -2.865,-4.14c0,0 -13.68,-3.165 -24.84,-11.88c-5.58,-4.35 -10.44,-9.975 -12.84,-17.16c-2.4,-7.185 -2.505,-16.065 2.04,-27.6c0,-0.075 0,-0.165 0,-0.24l37.92,-114.96l0.12,-0.24h-0.12c1.83,-4.65 -0.675,-9.765 -5.52,-11.4l0.12,-0.24c-0.12,-0.045 -0.24,0.045 -0.36,0c-0.12,-0.03 -0.12,-0.21 -0.24,-0.24l-0.12,0.24c-1.155,-0.375 -2.325,-0.555 -3.48,-0.48zM182.76,7.8c0.195,0.06 0.39,0.09 0.6,0.12c0.735,0.18 1.035,1.23 0.84,1.68c-0.045,0.12 -0.09,0.24 -0.12,0.36l-36.72,111.48l-8.4,-3.12l42,-109.32c0.045,-0.12 0.09,-0.24 0.12,-0.36c0.18,-0.735 1.23,-1.035 1.68,-0.84zM61.8,15.72c-11.91,0 -22.635,6.21 -29.16,16.2c-2.31,0 -3.84,0.315 -5.76,1.08l5.4,6.12c1.155,-0.39 1.845,-0.33 3,-0.72h1.92l0.84,-1.56c4.605,-8.445 13.8,-13.8 23.4,-13.8c12.285,0 23.085,8.49 26.16,20.4l0.72,3h3.84c7.29,0 13.08,4.995 15,11.52h8.04c-1.92,-10.365 -10.395,-18.435 -20.76,-19.2c-4.995,-13.83 -17.67,-23.04 -32.64,-23.04zM7.32,22.92c-0.165,0.03 -0.33,0.075 -0.48,0.12c-1.32,0.27 -2.415,1.23 -2.85,2.505c-0.45,1.275 -0.18,2.7 0.69,3.735l10.44,12.72c-3.675,4.395 -6.27,9.675 -7.08,15.6h7.68c0.675,-3.63 2.145,-6.99 4.2,-9.84l11.28,13.68h-27.36c-1.155,0 -2.355,0.435 -3.12,1.2c-0.765,1.155 -0.72,2.205 -0.72,3.36l19.2,122.88c0.39,1.53 1.92,3.12 3.84,3.12h72.96c-4.23,-1.92 -7.29,-4.605 -9.6,-7.68h-59.88l-18.12,-115.2h29.04l16.8,20.4c-0.33,0.81 -0.48,1.68 -0.48,2.64c0,4.23 3.45,7.68 7.68,7.68c4.23,0 7.68,-3.45 7.68,-7.68c0,-4.23 -3.45,-7.68 -7.68,-7.68c-0.405,0 -0.81,0.045 -1.2,0.12l-49.56,-60.12c-0.075,-0.09 -0.15,-0.165 -0.24,-0.24c-0.075,-0.12 -0.15,-0.24 -0.24,-0.36c-0.225,-0.15 -0.465,-0.27 -0.72,-0.36c-0.075,-0.09 -0.15,-0.165 -0.24,-0.24c-0.225,-0.105 -0.48,-0.18 -0.72,-0.24c-0.39,-0.105 -0.795,-0.15 -1.2,-0.12zM50.28,61.44l6.12,7.68h58.08l-9.24,58.8c3.075,-2.31 5.685,-4.23 8.76,-5.76l8.88,-56.16c0,-1.155 0.045,-2.235 -0.72,-3c-0.765,-1.155 -1.965,-1.56 -3.12,-1.56zM134.16,124.68l10.68,3.96c-3.69,11.25 -3.54,21.075 -0.84,29.16c3,8.985 8.94,15.75 15.36,20.76c3.555,2.775 6.915,3.945 10.44,5.76h-18.72c-9.525,-1.23 -13.8,-4.785 -15.96,-8.64c-2.16,-3.855 -2.16,-8.565 -1.2,-12.24c0.36,-1.215 0.105,-2.52 -0.69,-3.495c-0.795,-0.99 -2.01,-1.515 -3.27,-1.425c-1.695,0.12 -3.105,1.335 -3.48,3c-1.35,5.16 -1.5,11.88 1.92,18c0.96,1.74 2.28,3.315 3.84,4.8h-2.4c-7.785,0 -12.42,-1.785 -15,-3.96c-2.58,-2.175 -3.675,-4.92 -3.72,-8.52c-0.075,-7.215 5.1,-17.055 9.96,-22.08c1.185,-1.125 1.515,-2.88 0.84,-4.365c-0.675,-1.485 -2.22,-2.385 -3.84,-2.235c-0.96,0.075 -1.86,0.495 -2.52,1.2c-6.285,6.495 -12.24,17.145 -12.12,27.6c0.045,4.095 1.275,8.325 3.96,11.76c-4.89,-0.885 -8.25,-2.685 -10.56,-4.8c-3.315,-3.06 -4.68,-7.05 -4.68,-11.16c0,-10.47 6.75,-19.725 15.84,-27.36c8.595,-7.215 18.96,-12.645 26.16,-15.72z"></path>
</g></g></svg>