<svg xmlns="http://www.w3.org/2000/svg" x="0px" y="0px" viewBox="0 0 192 192"><g class="main"><g id="surface1">

<path d="M43.68,7.44c-4.365,0.255 -10.14,2.415 -13.2,8.52c-2.745,5.49 -2.37,11.13 -0.12,15.36c2.25,4.23 6,7.185 9.96,8.76c3.645,1.455 13.32,4.815 23.16,8.28c9.84,3.465 19.83,6.975 22.92,8.16c2.73,1.05 5.325,2.88 6.6,5.16c1.275,2.28 1.755,5.16 -0.72,10.32c-3.015,6.27 -13.08,25.8 -13.08,25.8l6.84,3.48c0,0 9.99,-19.23 13.2,-25.92c3.24,-6.765 3,-13.035 0.48,-17.52c-2.52,-4.485 -6.825,-7.05 -10.68,-8.52c-3.495,-1.335 -13.095,-4.695 -22.92,-8.16c-9.825,-3.465 -19.815,-7.05 -22.92,-8.28c-2.385,-0.945 -4.89,-2.865 -6.12,-5.16c-1.23,-2.295 -1.53,-4.86 0.24,-8.4c1.74,-3.495 4.155,-4.155 6.84,-4.32c2.685,-0.165 5.04,0.6 5.04,0.6c0,0 55.29,18.615 64.8,21.84c4.68,1.59 7.275,3.39 9,5.4c1.725,2.01 2.775,4.53 3.84,8.16c0.945,3.195 8.805,33.48 16.2,62.28c6.765,26.355 12.255,47.7 13.32,51.84h-21.96c-4.2,0 -7.68,3.48 -7.68,7.68v15.36h65.28v-15.36c0,-4.2 -3.48,-7.68 -7.68,-7.68h-20.04c-0.675,-2.61 -6.78,-26.415 -13.8,-53.76c-7.395,-28.8 -14.88,-58.05 -16.2,-62.52c-1.185,-4.035 -2.73,-7.8 -5.52,-11.04c-2.79,-3.24 -6.705,-5.685 -12.24,-7.56c-9.57,-3.24 -64.92,-21.84 -64.92,-21.84c0,0 -3.555,-1.215 -7.92,-0.96zM50.4,96c-15.12,0 -27.03,4.83 -34.92,12.96c-7.89,8.13 -11.64,19.35 -11.64,31.32v15.96c-0.015,0.36 0.03,0.735 0.12,1.08c-2.07,3.405 -3.36,7.38 -3.36,11.64c0,12.39 10.05,22.44 22.44,22.44c4.305,0 8.34,-1.26 11.76,-3.36c0.315,0.075 0.63,0.12 0.96,0.12h14.64c11.415,0 26.94,-1.815 40.08,-6.6c6.57,-2.4 12.48,-5.505 17.04,-9.84c4.56,-4.335 7.68,-10.11 7.68,-16.8c0,-13.02 -8.805,-27.165 -21,-38.64c-12.195,-11.475 -28.02,-20.28 -43.8,-20.28zM50.4,103.68c12.855,0 27.375,7.62 38.52,18.12c11.145,10.5 18.6,23.82 18.6,33.12c0,4.455 -1.845,8.01 -5.28,11.28c-3.435,3.27 -8.475,6 -14.4,8.16c-11.85,4.32 -26.85,6.12 -37.44,6.12h-8.16c2.025,-3.375 3.24,-7.305 3.24,-11.52c0,-12.39 -10.05,-22.44 -22.44,-22.44c-4.215,0 -8.145,1.215 -11.52,3.24v-9.48c0,-10.35 3.18,-19.425 9.48,-25.92c6.3,-6.495 15.9,-10.68 29.4,-10.68zM23.04,153c8.82,0 15.96,7.14 15.96,15.96c0,8.82 -7.14,15.96 -15.96,15.96c-8.82,0 -15.96,-7.14 -15.96,-15.96c0,-8.82 7.14,-15.96 15.96,-15.96zM134.4,172.8h49.92v7.68h-49.92z"></path>
</g></g></svg>