<svg xmlns="http://www.w3.org/2000/svg" x="0px" y="0px" viewBox="0 0 192 192"><g class="main"><g id="surface1">

<path d="M34.56,11.52c-6.31668,0 -11.52,5.20332 -11.52,11.52v145.92c0,6.31668 5.20332,11.52 11.52,11.52h122.88c6.31668,0 11.52,-5.20332 11.52,-11.52v-145.92c0,-6.31668 -5.20332,-11.52 -11.52,-11.52zM34.56,19.2h122.88c2.16972,0 3.84,1.67028 3.84,3.84v145.92c0,2.16972 -1.67028,3.84 -3.84,3.84h-122.88c-2.16972,0 -3.84,-1.67028 -3.84,-3.84v-145.92c0,-2.16972 1.67028,-3.84 3.84,-3.84zM119.04,30.72c-4.24155,0 -7.68,3.43845 -7.68,7.68c0,4.24155 3.43845,7.68 7.68,7.68c4.24155,0 7.68,-3.43845 7.68,-7.68c0,-4.24155 -3.43845,-7.68 -7.68,-7.68zM142.08,30.72c-4.24155,0 -7.68,3.43845 -7.68,7.68c0,4.24155 3.43845,7.68 7.68,7.68c4.24155,0 7.68,-3.43845 7.68,-7.68c0,-4.24155 -3.43845,-7.68 -7.68,-7.68zM96,57.6c-24.62342,0 -44.74388,19.44249 -45.96,43.77c-0.12049,0.48299 -0.14597,0.98479 -0.075,1.4775c-0.00504,0.27994 -0.045,0.55138 -0.045,0.8325c0,25.40339 20.67661,46.08 46.08,46.08c25.39639,0 46.08,-20.67577 46.08,-46.08c0,-0.27864 -0.04002,-0.54758 -0.045,-0.825c0.07594,-0.50496 0.05045,-1.02 -0.075,-1.515c-1.21232,-23.82091 -20.64835,-42.71983 -44.595,-43.4625c-0.43428,-0.17493 -0.89689,-0.26898 -1.365,-0.2775zM96,65.28c18.15608,0 33.28583,12.53767 37.3125,29.445c-3.7994,-1.7401 -7.40913,-2.49486 -10.35,-2.5575c-5.482,-0.11523 -9.73126,2.24302 -13.7325,4.14c-4.00123,1.89698 -7.83486,3.5325 -13.23,3.5325c-5.39514,0 -9.22876,-1.63553 -13.23,-3.5325c-3.99928,-1.89605 -8.2469,-4.25275 -13.725,-4.14h-0.0075c-2.94465,0.06068 -6.55161,0.81659 -10.35,2.5575c4.02504,-16.90769 19.14927,-29.445 37.3125,-29.445zM69.195,99.84c0.0025,0 0.005,0 0.0075,0c3.10424,-0.06524 6.08552,1.41878 10.275,3.405c4.1893,1.98622 9.50676,4.275 16.5225,4.275c7.01574,0 12.33302,-2.28877 16.5225,-4.275c4.18949,-1.98622 7.17076,-3.47025 10.275,-3.405c2.49721,0.05319 7.066,1.18492 11.58,4.365c-0.28309,21.00556 -17.31057,37.875 -38.3775,37.875c-21.07523,0 -38.09455,-16.86863 -38.3775,-37.875c4.5143,-3.18091 9.08137,-4.31447 11.5725,-4.365z"></path>
</g></g></svg>